<svg width="100" height="100" viewBox="0 0 100 100" fill="none" xmlns="http://www.w3.org/2000/svg">
<circle cx="50" cy="50" r="50" fill="white"/>
<path d="M36.8 45.1717V56.0279C36.8 57.4717 35.6116 58.6248 34.0991 58.6248C32.5964 58.6248 31.1428 57.4623 31.1428 56.0279V45.1717C31.1428 43.7561 32.5964 42.5935 34.0991 42.5935C35.5821 42.5935 36.8 43.7561 36.8 45.1717ZM37.8607 59.8904C37.8607 61.4279 39.1571 62.6654 40.7678 62.6654H42.7223L42.7518 68.3936C42.7518 71.8529 48.1732 71.8248 48.1732 68.3936V62.6654H51.8268V68.3936C51.8268 71.8342 57.2776 71.8436 57.2776 68.3936V62.6654H59.2616C60.8526 62.6654 62.1491 61.4279 62.1491 59.8904V43.0717H37.8607V59.8904ZM62.2178 42.1623H37.7526C37.7526 38.1498 40.2669 34.6623 43.9991 32.8436L42.1232 29.5342C41.8482 29.0748 42.5455 28.7842 42.7812 29.1779L44.6866 32.5154C48.1143 31.0623 52.0526 31.1373 55.3232 32.5154L57.2187 29.1873C57.4643 28.7842 58.1518 29.0842 57.8768 29.5436L56.0009 32.8436C59.7035 34.6623 62.2178 38.1498 62.2178 42.1623ZM45.4526 36.9592C45.4526 36.4248 45.0009 35.9748 44.4214 35.9748C43.8616 35.9748 43.4196 36.4248 43.4196 36.9592C43.4196 37.4936 43.8714 37.9436 44.4214 37.9436C45.0009 37.9436 45.4526 37.4936 45.4526 36.9592ZM56.5901 36.9592C56.5901 36.4248 56.1384 35.9748 55.5884 35.9748C55.0089 35.9748 54.5571 36.4248 54.5571 36.9592C54.5571 37.4936 55.0089 37.9436 55.5884 37.9436C56.1384 37.9436 56.5901 37.4936 56.5901 36.9592ZM65.9009 42.5935C64.4178 42.5935 63.2 43.7279 63.2 45.1717V56.0279C63.2 57.4717 64.4178 58.6248 65.9009 58.6248C67.4134 58.6248 68.8571 57.4623 68.8571 56.0279V45.1717C68.8571 43.7279 67.4035 42.5935 65.9009 42.5935Z" fill="#A9ADC1"/>
</svg>
