<svg width="100" height="100" viewBox="0 0 100 100" fill="none" xmlns="http://www.w3.org/2000/svg">
<circle cx="50" cy="50" r="50" fill="white"/>
<path d="M64.5177 51.1906C64.4948 47.75 66.3969 45.1531 70.2469 43.2406C68.0928 40.7188 64.8386 39.3313 60.5417 39.0594C56.474 38.7969 52.0282 41 50.4011 41C48.6823 41 44.7407 39.1531 41.6469 39.1531C35.2532 39.2375 28.4584 43.325 28.4584 51.6406C28.4584 54.0969 29.0084 56.6344 30.1084 59.2531C31.575 62.6938 36.8688 71.1313 42.3917 70.9906C45.2792 70.9344 47.3188 69.3125 51.0771 69.3125C54.7209 69.3125 56.6115 70.9906 59.8313 70.9906C65.4 70.925 70.1896 63.2563 71.5875 59.8063C64.1167 56.9281 64.5177 51.3688 64.5177 51.1906ZM58.0323 35.7969C61.1605 32.7594 60.874 29.9938 60.7823 29C58.0209 29.1313 54.824 30.5375 53.0021 32.2719C50.9969 34.1281 49.8167 36.425 50.0688 39.0125C53.0594 39.2 55.7865 37.9438 58.0323 35.7969Z" fill="#A9ADC1"/>
</svg>
