<svg width="85" height="85" viewBox="0 0 85 85" fill="none" xmlns="http://www.w3.org/2000/svg">
<path d="M42.52 85C32.7734 85.0046 23.3213 81.6589 15.7478 75.5238C8.17437 69.3886 2.9398 60.8367 0.921368 51.3013C-1.09706 41.7659 0.223307 31.8265 4.66119 23.1488C9.09908 14.471 16.3848 7.58238 25.2973 3.63722C34.2099 -0.307936 44.2076 -1.06983 53.6151 1.47923C63.0225 4.02828 71.2679 9.73337 76.9695 17.6384C82.6711 25.5434 85.4824 35.168 84.9322 44.8991C84.382 54.6303 80.5038 63.8766 73.9475 71.0886L82.8228 81.0378L78.3939 82.9164C71.5423 85.8227 64.8376 82.9947 61.0744 80.7378C55.2908 83.5415 48.9473 84.9987 42.52 85ZM42.52 6.9856C22.9125 6.9856 6.96046 22.9376 6.96046 42.5452C6.96046 62.1529 22.9125 78.1048 42.52 78.1048C48.495 78.1054 54.374 76.6016 59.6148 73.7322L61.5108 72.6904L63.2737 73.9448C64.5584 74.8588 67.0922 76.4325 70.0013 77.0228L64.4164 70.7623L66.8645 68.4617C70.4205 65.1492 73.2527 61.1366 75.1828 56.6765C77.1129 52.2163 78.0992 47.405 78.0796 42.5452C78.0796 22.9376 62.1276 6.9856 42.52 6.9856Z" fill="#3F3D56"/>
<path d="M81.5272 42.5452C81.5272 21.0021 64.063 3.53796 42.52 3.53796C20.9769 3.53796 3.51282 21.0021 3.51282 42.5452C3.51282 64.0882 20.9769 81.5523 42.52 81.5523C49.0765 81.5619 55.5287 79.9112 61.275 76.7539C63.9714 78.6724 70.5493 82.4991 77.0476 79.7426L69.2254 70.9741C73.1138 67.3308 76.2122 62.9274 78.3284 58.0371C80.4445 53.1467 81.5333 47.8737 81.5272 42.5452Z" fill="#6C63FF"/>
<path opacity="0.1" d="M10.408 42.3481C10.408 21.9671 26.0397 5.23993 45.9676 3.49432C44.8314 3.3948 43.682 3.34094 42.52 3.34094C20.9769 3.34094 3.51282 20.805 3.51282 42.3481C3.51282 63.8912 20.9769 81.3553 42.52 81.3553C43.6803 81.3553 44.8276 81.3008 45.9621 81.2015C26.0369 79.4533 10.408 62.7273 10.408 42.3481Z" fill="black"/>
</svg>
